<svg xmlns="http://www.w3.org/2000/svg" id="Layer_1" width="130" height="130" viewBox="0 0 130 93.28"><defs><style>.cls-1{fill:#010101}</style></defs><path d="M66.16 93.27c-3.8 0-6-1.51-7.17-2.78-1.79-1.94-2.31-4.45-2.2-6.05.05-3.25 3.45-8.28 8.13-8.67 1.69-.07 3.15-.14 4.24-.2-.4-3.27-.54-9.59 2.72-16.11 4.89-9.79 21.09-8.41 24.28-8.03 1.06.12 1.82 1.09 1.69 2.15-.13 1.06-1.09 1.83-2.15 1.69-1.68-.2-16.55-1.71-20.37 5.92-3.94 7.89-2.05 15.63-2.03 15.71.14.56.03 1.15-.31 1.62-.34.47-.87.76-1.45.79 0 0-2.65.16-6.39.31-2.52.21-4.5 3.58-4.5 4.89v.15c-.05.61.14 2.07 1.18 3.2.95 1.02 2.41 1.54 4.33 1.54 1.07 0 1.93.87 1.93 1.93s-.87 1.93-1.93 1.93ZM30.65 67.84c-.95 0-1.78-.7-1.91-1.68-.14-1.06.6-2.03 1.66-2.18 7.02-.95 9.94-3.45 12.77-5.86.61-.52 1.21-1.03 1.82-1.5.85-.65 2.06-.5 2.71.35.65.85.5 2.06-.35 2.71-.56.43-1.1.9-1.67 1.38-2.95 2.52-6.61 5.65-14.76 6.76-.09.01-.18.02-.26.02ZM35.77 29.23c-.64 0-1.27-.32-1.64-.9-.57-.9-.3-2.1.6-2.67 2.31-1.46 7.61-5.41 12.73-9.23 5.12-3.82 9.96-7.42 12.08-8.76C63.65 5.23 73.68.59 79.53.24c.6-.03 1.17-.07 1.71-.1 4.93-.31 9.6-.59 10.67 3.91 0 .04.02.07.02.11.6 3.4-2.1 6.89-2.41 7.28-.67.83-1.89.97-2.72.3-.83-.67-.97-1.88-.3-2.72.62-.78 1.82-2.81 1.63-4.13-.31-1.1-1.89-1.19-6.65-.89-.56.03-1.14.07-1.73.1-4.54.27-13.66 4.18-18.19 6.86-1.95 1.23-6.95 4.95-11.78 8.56-5.18 3.86-10.55 7.86-12.98 9.4-.32.2-.68.3-1.03.3Z" class="cls-1"/><path d="M80.36 93.28c-16.59 0-35.11-.08-46.07-.13-4.32-.02-7.35-.03-8.44-.03-3.25 0-5.68-.87-7.21-2.58-1.42-1.59-1.99-3.79-1.69-6.54.42-4.42 5.14-8 11.48-8.69.68-.07 1.36-.11 2.03-.15-.2-.34-.41-.7-.6-1.1-.02-.03-.03-.07-.05-.1-.92-2.14-1.14-4.57-1.16-6.26-3.9.02-7.09.09-9.73.15-6.49.14-10.06.22-13.55-.68-2.03-.51-3.59-1.96-4.5-4.21-1.62-4.01-.92-10.11 1.63-14.19.46-.75.99-1.71 1.58-2.77 3.55-6.34 8.9-15.91 16.85-18.36 5.75-1.67 12.33-2.56 19.07-2.57 1.11-.24 6.27-2.5 10.82-4.5 6.97-3.06 14.88-6.52 19.57-7.97 4.04-1.25 24.49-7.24 30.81-2.58 1.36 1 2.08 2.43 2.08 4.11 0 5.47-3.23 12.61-18.63 15.54-2.44.49-6.05 1.27-10.08 2.15 9.01-.75 17.64-1.14 21.29-.36 9.41 2.11 18.43 12.5 19.92 18.48 1.19 4.44 1.1 11.83.9 16.33.7-.37 1.52-.77 2.48-1.19 2.9-1.24 5.89-.96 8.04.74 1.36 1.08 3.5 3.68 2.56 8.96-1.55 8.69-6.97 17.68-15.59 18.18-4.2.25-18.15.33-33.82.33ZM33.05 78.96c-1.19 0-2.75.04-4.22.18-4.94.53-7.83 3.1-8.03 5.24-.18 1.64.06 2.83.72 3.57.77.86 2.22 1.29 4.33 1.29 1.1 0 4.13.01 8.46.03 21.28.1 71.11.32 79.64-.19 6.49-.37 10.77-8.04 12.01-15 .44-2.45.03-4.32-1.16-5.26-1.01-.8-2.54-.89-4.08-.22-3.64 1.62-4.84 2.71-4.85 2.72-.58.54-1.45.68-2.17.33a1.939 1.939 0 0 1-1.1-1.89c.01-.13 1.04-12.92-.56-18.88-1.11-4.43-8.86-13.84-17.01-15.67-6.83-1.47-36.75 1.99-47.7 3.44-.98.13-1.89-.49-2.13-1.44s.27-1.93 1.18-2.28c.22-.08 5.48-2.08 12.36-3.65 3.41-.73 7.16-1.55 10.78-2.35 5.69-1.25 11.06-2.42 14.38-3.09 7.08-1.35 15.5-4.48 15.5-11.75 0-.46-.14-.73-.51-1-3.29-2.43-16.56-.18-27.37 3.16-4.48 1.38-12.62 4.95-19.16 7.82-8.78 3.85-11.13 4.82-12.27 4.82-6.41 0-12.66.83-18.06 2.4-6.44 1.99-11.54 11.1-14.59 16.55-.62 1.11-1.18 2.1-1.67 2.91-1.87 3-2.48 7.89-1.34 10.72.65 1.6 1.56 1.83 1.86 1.91 2.98.77 6.37.69 12.51.56 3.1-.07 6.96-.15 11.83-.15.55 0 1.07.23 1.44.64.37.41.54.95.48 1.5s-.38 3.69.76 6.42c1.07 2.11 2.1 2.71 2.33 2.82.99.16 1.6 1.05 1.51 2.06-.09 1.03-1.09 1.8-2.12 1.74-.02 0-.83-.04-2.01-.04Zm2.57-3.77Zm4.48-50.14h.01-.01Z" class="cls-1"/><ellipse cx="21.35" cy="43.89" class="cls-1" rx="3.26" ry="3.41"/></svg>