<svg xmlns="http://www.w3.org/2000/svg" x="5" width="130" height="130" xml:space="preserve"><path d="M38.7 115.3c-1.1 0-2-.9-2-2 0-1.8-.8-44.8 1.3-56.5 1.9-10.9 11.4-25.1 15-30.4.4-.6.7-1 .9-1.3 1.1-1.7 1.4-13 1.1-22.4 0-1.1.8-2 1.9-2.1C58 .5 59 1.4 59 2.5c.1 4.9.5 21.3-1.8 24.7-.2.3-.5.8-.9 1.4-3.1 4.6-12.7 18.8-14.4 28.9-2 11.4-1.2 55.3-1.2 55.8 0 1-.9 2-2 2zM79.9 43c-.7 0-1.4-.4-1.8-1-2.6-4.8-5.5-9.2-7.4-12-.8-1.3-1.4-2.2-1.8-2.8-2.2-3.4-1.7-17.2-1.5-21.4 0-1.1 1-2 2.1-1.9 1.1 0 2 1 1.9 2.1-.4 7.9-.1 17.4.9 19.1.3.6 1 1.5 1.7 2.7 1.9 2.9 4.8 7.3 7.5 12.3.5 1 .2 2.2-.8 2.7-.1.1-.4.2-.8.2zm7.8 72.3c-1.1 0-2-.9-2-2 0-.3.5-33-.6-49.3-.1-1.1.8-2.1 1.9-2.1 1.1-.1 2.1.8 2.1 1.9 1.1 16.5.6 49.3.6 49.7 0 .9-.9 1.8-2 1.8z"/><path d="M63.6 130h-22c-3.3 0-4.7-2.7-5-4.2v-18.4c0-1.1.9-2 2-2h24.2c1.1 0 2 .9 2 2s-.9 2-2 2H40.7v15.8c.1.4.4.8 1 .8h22c1.1 0 2 .9 2 2s-.9 2-2.1 2z"/><path d="M84.7 130H63.5c-1.1 0-2-.9-2-2s.9-2 2-2h21.2c.6 0 .9-.4 1-.8v-15.8H62.5c-1.1 0-2-.9-2-2s.9-2 2-2h25.2c1.1 0 2 .9 2 2v18.4c-.3 1.5-1.7 4.2-5 4.2z"/><path d="M60.3 116.1h-9.2c-.3 0-.5-.2-.5-.5v-1.7c0-.3.2-.5.5-.5h9.2c.3 0 .5.2.5.5v1.7c0 .4-.3.5-.5.5zm16.2 0H63c-.3 0-.5-.2-.5-.5v-1.9c0-.3.2-.5.5-.5h13.4c.3 0 .5.2.5.5v1.9c0 .4-.1.5-.4.5zM69.7 7.9c-.9 0-1.6-.6-1.9-1.4-.5-.4-2-1.2-4.5-1.8-2.3-.7-4-.7-4.6-.7-.4.5-1.1.8-1.8.7-1.1-.2-1.8-1.2-1.7-2.3.1-.7.5-1.3 1.2-1.7 2-1.3 6.2-.3 8 .1 3.6 1 7.8 2.8 7.3 5.5-.3.9-1.1 1.6-2 1.6zm5.9 61.6c-.4 0-.9-.1-1.3-.3-.9-.5-1.5-1.5-1.5-2.6v-.3l2-11.9-8.6-8.3c-.7-.7-1-1.7-.8-2.7.3-1 1.1-1.7 2.1-2h.2l11.7-1.8 5.4-11.1c.6-1 1.8-1.5 2.9-1.3.9.2 1.6.8 1.9 1.6L95 39.5l11.8 1.6c1.1.1 2 .7 2.4 1.6.4 1 .2 2.2-.7 3l-8.5 8.4 2.1 11.8c.2 1-.1 2.1-.9 2.7-.9.7-2 .8-3 .3l-10.6-5.5L77 69.1c-.4.3-.9.4-1.4.4zM70.8 45l7.3 7.1c.8.8.8 1.6.8 2.1v.3l-1.7 10 8.9-4.7c.8-.5 2-.6 2.8 0l8.8 4.6-1.7-9.8c-.2-.5-.2-1.1 0-1.6.1-.4.4-.8.7-1.1l7.2-7.1-10.3-1.4-.3-.2c-.6-.3-1-.7-1.2-.8l-.2-.2-4.7-9.3-4.2 8.7c-.2 1-1.1 1.8-2.2 1.9l-10 1.5z"/></svg>