<?xml version="1.0" encoding="UTF-8"?><svg id="Layer_1" xmlns="http://www.w3.org/2000/svg" viewBox="0 0 109.69 130" width="130" height="130"><defs><style>.cls-1{fill:#010101;}</style></defs><g><path class="cls-1" d="m55.16,130c-.72,0-1.42-.41-1.76-1.1-.47-.97-.06-2.13.91-2.6,11.65-5.62,16.16-9.88,27.05-20.17l3.16-2.99c13.88-13.39,20.09-26.79,20.87-32.52.82-6,.16-44.09,0-52L54.3,3.82c-1.03-.3-1.63-1.38-1.33-2.41.3-1.03,1.38-1.63,2.41-1.33l52.48,15.19c.82.24,1.39.98,1.41,1.83.04,1.92.93,47.07-.02,54.03-1.02,7.51-8.36,21.62-22.04,34.82l-3.18,3c-11.2,10.59-15.83,14.97-28.03,20.85-.27.13-.56.19-.84.19Z"/><path class="cls-1" d="m55,129.84c-.27,0-.55-.06-.82-.18-12.4-5.76-17.07-10.17-28.34-20.83l-3.03-2.86C8.9,92.86,1.46,78.81.44,71.29c-.95-6.96-.06-52.11-.02-54.03.02-.85.58-1.59,1.4-1.83L54.3.08c1.03-.3,2.11.29,2.42,1.32.3,1.03-.29,2.11-1.32,2.42L4.29,18.77c-.15,7.9-.81,46,0,52,.78,5.72,7.07,19.06,21.18,32.37l3.03,2.87c11.26,10.65,15.48,14.63,27.31,20.13.98.45,1.4,1.61.95,2.59-.33.71-1.03,1.13-1.77,1.13Z"/><path class="cls-1" d="m54.84,117.31c-.73,0-1.42-.41-1.76-1.11-.46-.97-.05-2.13.92-2.6,9.27-4.43,12.8-7.77,21.33-15.84l2.77-2.62c11.05-10.41,16.17-21.26,16.8-25.64.58-4.06.27-27.92,0-41.18l-40.61-11.82c-1.03-.3-1.63-1.38-1.33-2.41.3-1.03,1.38-1.63,2.41-1.33l41.98,12.22c.82.24,1.38.98,1.4,1.83.03,1.54.78,37.66-.02,43.24-.9,6.31-7.37,17.93-17.98,27.93l-2.76,2.61c-8.85,8.37-12.51,11.84-22.33,16.53-.27.13-.56.19-.84.19Z"/><path class="cls-1" d="m54.84,117.15c-.27,0-.55-.06-.82-.18-9.86-4.56-13.54-8.04-22.42-16.45l-2.69-2.54c-10.61-10-17.08-21.62-17.98-27.93-.8-5.58-.05-41.7-.02-43.24.02-.85.59-1.59,1.4-1.83l41.98-12.22c1.03-.3,2.11.29,2.41,1.33.3,1.03-.29,2.11-1.33,2.41L14.78,28.33c-.26,13.26-.57,37.12,0,41.18.63,4.39,5.74,15.23,16.8,25.64l2.69,2.55c8.81,8.33,12.1,11.45,21.38,15.75.98.45,1.4,1.61.95,2.59-.33.71-1.03,1.13-1.77,1.13Z"/></g><path class="cls-1" d="m40.79,83.72c-.62,0-1.22-.2-1.71-.57-.85-.65-1.24-1.72-1.03-2.79l2.4-14.83-11.19-10.13c-.82-.82-1.09-1.92-.78-2.95.31-1.02,1.12-1.76,2.17-1.97l15.02-2.28,6.64-13.59c.49-.97,1.45-1.56,2.53-1.56s2.05.59,2.53,1.55l6.79,13.44,14.81,2.09c1.16.06,2.14.72,2.57,1.76.43,1.03.2,2.19-.57,2.97,0,0,0,0,0,0l-10.78,10.62,2.71,14.74c.21,1.04-.19,2.11-1.04,2.76-.86.65-2.04.76-3.01.27l-13.45-6.95-13.27,7.09c-.43.22-.89.32-1.34.32Zm1.1-2.72v.05s0-.03,0-.05Zm27.17-.06s0,.02,0,.03v-.03Zm-25.74-18.06c.72.49,1.09,1.28,1.09,2.35,0,.1,0,.21-.02.31l-2.16,13.39,11.71-6.26c.75-.52,1.77-.57,2.71-.1l12.02,6.21-2.43-13.2c-.02-.12-.03-.23-.03-.35,0-.79.34-1.61.88-2.16l9.48-9.35-13.47-1.91c-.88-.08-1.74-.68-2.17-1.54l-6.07-12.02-5.83,11.92c-.27.99-1.18,1.72-2.31,1.8l-13.23,2,9.83,8.9Zm13.05,12.82s0,0,0,0c0,0,0,0,0,0Zm23.22-22.22h0,0Zm-34.37-3.92h0s0,0,0,0Zm19.19-1.04h0s0,0,0,0Zm-17.87-.44h0,0Zm16.77-.16h0Zm0,0h0,0Zm-9.41-11.59s0,0,0,0h0Z"/></svg>