<?xml version="1.0" encoding="UTF-8"?><svg id="Layer_1" xmlns="http://www.w3.org/2000/svg" viewBox="0 0 90.88 130" width="130" height="130"><defs><style>.cls-1{fill:#010101;}</style></defs><path class="cls-1" d="m45.44,130c-.1,0-.2,0-.29-.02C19.06,126.07.5,103.09,0,74.08-.4,48.66,27.05,17.49,43.45,1.16l.58-.58c.78-.78,2.03-.78,2.81,0l.58.58c16.4,16.32,43.85,47.5,43.45,72.91-.49,29.01-19.06,52-45.14,55.9-.1.01-.2.02-.29.02Zm0-125.21C18.41,31.88,3.7,56.44,3.97,74.01c.46,26.91,17.5,48.25,41.47,51.99,23.97-3.74,41.01-25.08,41.47-51.99.28-17.57-14.44-42.13-41.47-69.22Z"/><path class="cls-1" d="m45.44,127.83c-1.09,0-1.97-.88-1.98-1.97l-.93-92.16c-.01-1.1.87-1.99,1.97-2.01,1.09-.01,1.99.87,2,1.97l.93,92.16c.01,1.1-.87,1.99-1.96,2.01h-.02Z"/><path class="cls-1" d="m44.82,69.38c-.48,0-.96-.17-1.34-.52l-13.3-12.22c-.81-.74-.86-2-.12-2.81.74-.81,2-.86,2.81-.12l11.93,10.96,11.49-10.94c.79-.76,2.05-.73,2.81.07s.73,2.05-.07,2.81l-12.83,12.22c-.38.36-.88.55-1.37.55Z"/><path class="cls-1" d="m44.82,102.32c-.48,0-.95-.17-1.33-.51l-18.87-17.01c-.81-.73-.88-1.99-.14-2.8.73-.81,1.99-.88,2.8-.14l17.51,15.78,17.22-16.22c.8-.75,2.05-.71,2.81.08.75.8.71,2.06-.08,2.81l-18.56,17.47c-.38.36-.87.54-1.36.54Z"/></svg>